<svg width="12" height="12" viewBox="0 0 12 12" fill="none" xmlns="http://www.w3.org/2000/svg">
<path fill-rule="evenodd" clip-rule="evenodd" d="M0.21967 0.21967C0.512563 -0.0732233 0.987437 -0.0732233 1.28033 0.21967L5.75 4.68934L10.2197 0.21967C10.5126 -0.0732233 10.9874 -0.0732233 11.2803 0.21967C11.5732 0.512563 11.5732 0.987437 11.2803 1.28033L6.81066 5.75L11.2803 10.2197C11.5732 10.5126 11.5732 10.9874 11.2803 11.2803C10.9874 11.5732 10.5126 11.5732 10.2197 11.2803L5.75 6.81066L1.28033 11.2803C0.987437 11.5732 0.512563 11.5732 0.21967 11.2803C-0.0732233 10.9874 -0.0732233 10.5126 0.21967 10.2197L4.68934 5.75L0.21967 1.28033C-0.0732233 0.987437 -0.0732233 0.512563 0.21967 0.21967Z" fill="white"/>
</svg>
